<mxfile host="app.diagrams.net" modified="2023-03-27T15:34:32.916Z" agent="Mozilla/5.0 (X11; Ubuntu; Linux x86_64; rv:109.0) Gecko/20100101 Firefox/111.0" etag="gIp1nZNwzyoUfujCaoo_" version="21.1.1" type="device">
  <diagram name="Page-1" id="6EgMhWEb-nkDl0XdSn-C">
    <mxGraphModel dx="1647" dy="912" grid="1" gridSize="5" guides="1" tooltips="1" connect="1" arrows="1" fold="1" page="1" pageScale="1" pageWidth="1169" pageHeight="827" math="0" shadow="0">
      <root>
        <mxCell id="0" />
        <mxCell id="1" parent="0" />
        <mxCell id="TPJMeiY1_PRA1f4oK3qn-159" value="" style="rounded=1;whiteSpace=wrap;html=1;" vertex="1" parent="1">
          <mxGeometry x="385" y="990" width="700" height="550" as="geometry" />
        </mxCell>
        <mxCell id="TPJMeiY1_PRA1f4oK3qn-14" value="f" style="verticalLabelPosition=bottom;verticalAlign=top;html=1;shadow=0;dashed=0;strokeWidth=1;shape=mxgraph.ios.iBgFlat;strokeColor=#18211b;fillColor=#dddddd;" vertex="1" parent="1">
          <mxGeometry y="60" width="1165" height="745" as="geometry" />
        </mxCell>
        <mxCell id="TPJMeiY1_PRA1f4oK3qn-4" value="Navbar" style="html=1;shadow=0;dashed=0;fillColor=#343A40;strokeColor=none;fontSize=16;fontColor=#ffffff;align=left;spacing=15;" vertex="1" parent="1">
          <mxGeometry width="1165" height="60" as="geometry" />
        </mxCell>
        <mxCell id="TPJMeiY1_PRA1f4oK3qn-12" value="Didattica" style="rounded=1;fillColor=#0057D8;strokeColor=none;html=1;whiteSpace=wrap;fontColor=#ffffff;align=center;verticalAlign=middle;fontStyle=0;fontSize=12;sketch=0;" vertex="1" parent="1">
          <mxGeometry x="260" y="400.5" width="135" height="64" as="geometry" />
        </mxCell>
        <mxCell id="TPJMeiY1_PRA1f4oK3qn-13" value="Vivi Sapienza" style="rounded=1;fillColor=#0057D8;strokeColor=none;html=1;whiteSpace=wrap;fontColor=#ffffff;align=center;verticalAlign=middle;fontStyle=0;fontSize=12;sketch=0;" vertex="1" parent="1">
          <mxGeometry x="760" y="400.5" width="135" height="64" as="geometry" />
        </mxCell>
        <mxCell id="TPJMeiY1_PRA1f4oK3qn-15" value="Navbar that is fixed when scrolling down" style="html=1;shadow=0;dashed=0;fillColor=#343A40;strokeColor=none;fontSize=16;fontColor=#ffffff;align=left;spacing=15;" vertex="1" parent="1">
          <mxGeometry x="1169" width="1165" height="60" as="geometry" />
        </mxCell>
        <mxCell id="TPJMeiY1_PRA1f4oK3qn-23" value="Home" style="fillColor=none;strokeColor=none;fontSize=14;fontColor=#ffffff;align=center;" vertex="1" parent="1">
          <mxGeometry x="2045" y="10" width="70" height="40" as="geometry" />
        </mxCell>
        <mxCell id="TPJMeiY1_PRA1f4oK3qn-24" value="Category&#xa;Dropdown&#xa;" style="fillColor=none;strokeColor=none;fontSize=14;fontColor=#ffffff;align=center;" vertex="1" parent="1">
          <mxGeometry x="2130" y="15" width="70" height="40" as="geometry" />
        </mxCell>
        <mxCell id="TPJMeiY1_PRA1f4oK3qn-25" value="" style="endArrow=none;html=1;rounded=0;movable=0;resizable=0;rotatable=0;deletable=0;editable=0;locked=1;connectable=0;" edge="1" parent="1">
          <mxGeometry width="50" height="50" relative="1" as="geometry">
            <mxPoint x="1180" y="320" as="sourcePoint" />
            <mxPoint x="2330" y="320" as="targetPoint" />
          </mxGeometry>
        </mxCell>
        <mxCell id="TPJMeiY1_PRA1f4oK3qn-26" value="" style="endArrow=none;html=1;rounded=0;" edge="1" parent="1">
          <mxGeometry width="50" height="50" relative="1" as="geometry">
            <mxPoint x="1175" y="580" as="sourcePoint" />
            <mxPoint x="2325" y="580" as="targetPoint" />
          </mxGeometry>
        </mxCell>
        <mxCell id="TPJMeiY1_PRA1f4oK3qn-28" value="&lt;font style=&quot;font-size: 22px;&quot;&gt;Sport&lt;/font&gt;" style="text;html=1;align=center;verticalAlign=middle;resizable=0;points=[];autosize=1;strokeColor=none;fillColor=none;" vertex="1" parent="1">
          <mxGeometry x="1175" y="65" width="75" height="40" as="geometry" />
        </mxCell>
        <mxCell id="TPJMeiY1_PRA1f4oK3qn-29" value="&lt;font style=&quot;font-size: 20px;&quot;&gt;Work&lt;/font&gt;" style="text;html=1;align=center;verticalAlign=middle;resizable=0;points=[];autosize=1;strokeColor=none;fillColor=none;" vertex="1" parent="1">
          <mxGeometry x="1185" y="330" width="65" height="40" as="geometry" />
        </mxCell>
        <mxCell id="TPJMeiY1_PRA1f4oK3qn-73" value="IMAGE" style="swimlane;whiteSpace=wrap;html=1;startSize=105;" vertex="1" parent="1">
          <mxGeometry x="1225" y="105" width="200" height="200" as="geometry" />
        </mxCell>
        <mxCell id="TPJMeiY1_PRA1f4oK3qn-74" value="Title" style="text;html=1;align=center;verticalAlign=middle;resizable=0;points=[];autosize=1;strokeColor=none;fillColor=none;" vertex="1" parent="TPJMeiY1_PRA1f4oK3qn-73">
          <mxGeometry y="110" width="45" height="30" as="geometry" />
        </mxCell>
        <mxCell id="TPJMeiY1_PRA1f4oK3qn-75" value="&lt;div&gt;Short Description with link&lt;/div&gt;&lt;div&gt;&lt;br&gt;&lt;/div&gt;" style="text;html=1;align=center;verticalAlign=middle;resizable=0;points=[];autosize=1;strokeColor=none;fillColor=none;" vertex="1" parent="TPJMeiY1_PRA1f4oK3qn-73">
          <mxGeometry x="5" y="150" width="160" height="45" as="geometry" />
        </mxCell>
        <mxCell id="TPJMeiY1_PRA1f4oK3qn-76" value="IMAGE" style="swimlane;whiteSpace=wrap;html=1;startSize=105;" vertex="1" parent="1">
          <mxGeometry x="1475" y="105" width="200" height="200" as="geometry" />
        </mxCell>
        <mxCell id="TPJMeiY1_PRA1f4oK3qn-77" value="Title" style="text;html=1;align=center;verticalAlign=middle;resizable=0;points=[];autosize=1;strokeColor=none;fillColor=none;" vertex="1" parent="TPJMeiY1_PRA1f4oK3qn-76">
          <mxGeometry y="110" width="45" height="30" as="geometry" />
        </mxCell>
        <mxCell id="TPJMeiY1_PRA1f4oK3qn-78" value="&lt;div&gt;Short Description with link&lt;/div&gt;&lt;div&gt;&lt;br&gt;&lt;/div&gt;" style="text;html=1;align=center;verticalAlign=middle;resizable=0;points=[];autosize=1;strokeColor=none;fillColor=none;" vertex="1" parent="TPJMeiY1_PRA1f4oK3qn-76">
          <mxGeometry x="5" y="150" width="160" height="45" as="geometry" />
        </mxCell>
        <mxCell id="TPJMeiY1_PRA1f4oK3qn-88" value="IMAGE" style="swimlane;whiteSpace=wrap;html=1;startSize=105;" vertex="1" parent="1">
          <mxGeometry x="1730" y="105" width="200" height="200" as="geometry" />
        </mxCell>
        <mxCell id="TPJMeiY1_PRA1f4oK3qn-89" value="Title" style="text;html=1;align=center;verticalAlign=middle;resizable=0;points=[];autosize=1;strokeColor=none;fillColor=none;" vertex="1" parent="TPJMeiY1_PRA1f4oK3qn-88">
          <mxGeometry y="110" width="45" height="30" as="geometry" />
        </mxCell>
        <mxCell id="TPJMeiY1_PRA1f4oK3qn-90" value="&lt;div&gt;Short Description with link&lt;/div&gt;&lt;div&gt;&lt;br&gt;&lt;/div&gt;" style="text;html=1;align=center;verticalAlign=middle;resizable=0;points=[];autosize=1;strokeColor=none;fillColor=none;" vertex="1" parent="TPJMeiY1_PRA1f4oK3qn-88">
          <mxGeometry x="5" y="150" width="160" height="45" as="geometry" />
        </mxCell>
        <mxCell id="TPJMeiY1_PRA1f4oK3qn-91" value="IMAGE" style="swimlane;whiteSpace=wrap;html=1;startSize=105;" vertex="1" parent="1">
          <mxGeometry x="2025" y="105" width="200" height="200" as="geometry" />
        </mxCell>
        <mxCell id="TPJMeiY1_PRA1f4oK3qn-92" value="Title" style="text;html=1;align=center;verticalAlign=middle;resizable=0;points=[];autosize=1;strokeColor=none;fillColor=none;" vertex="1" parent="TPJMeiY1_PRA1f4oK3qn-91">
          <mxGeometry y="110" width="45" height="30" as="geometry" />
        </mxCell>
        <mxCell id="TPJMeiY1_PRA1f4oK3qn-93" value="&lt;div&gt;Short Description with link&lt;/div&gt;&lt;div&gt;&lt;br&gt;&lt;/div&gt;" style="text;html=1;align=center;verticalAlign=middle;resizable=0;points=[];autosize=1;strokeColor=none;fillColor=none;" vertex="1" parent="TPJMeiY1_PRA1f4oK3qn-91">
          <mxGeometry x="5" y="150" width="160" height="45" as="geometry" />
        </mxCell>
        <mxCell id="TPJMeiY1_PRA1f4oK3qn-95" value="" style="endArrow=none;html=1;rounded=0;" edge="1" parent="1">
          <mxGeometry width="50" height="50" relative="1" as="geometry">
            <mxPoint x="1179" y="310" as="sourcePoint" />
            <mxPoint x="2329" y="310" as="targetPoint" />
          </mxGeometry>
        </mxCell>
        <mxCell id="TPJMeiY1_PRA1f4oK3qn-96" value="" style="rounded=1;whiteSpace=wrap;html=1;fillColor=#fa6800;strokeColor=#C73500;fontColor=#000000;" vertex="1" parent="1">
          <mxGeometry x="1694" y="310" width="60" height="10" as="geometry" />
        </mxCell>
        <mxCell id="TPJMeiY1_PRA1f4oK3qn-100" value="" style="triangle;whiteSpace=wrap;html=1;" vertex="1" parent="1">
          <mxGeometry x="2300" y="180" width="15" height="20" as="geometry" />
        </mxCell>
        <mxCell id="TPJMeiY1_PRA1f4oK3qn-111" value="IMAGE" style="swimlane;whiteSpace=wrap;html=1;startSize=105;" vertex="1" parent="1">
          <mxGeometry x="1225" y="365" width="200" height="200" as="geometry" />
        </mxCell>
        <mxCell id="TPJMeiY1_PRA1f4oK3qn-112" value="Title" style="text;html=1;align=center;verticalAlign=middle;resizable=0;points=[];autosize=1;strokeColor=none;fillColor=none;" vertex="1" parent="TPJMeiY1_PRA1f4oK3qn-111">
          <mxGeometry y="110" width="45" height="30" as="geometry" />
        </mxCell>
        <mxCell id="TPJMeiY1_PRA1f4oK3qn-113" value="&lt;div&gt;Short Description with link&lt;/div&gt;&lt;div&gt;&lt;br&gt;&lt;/div&gt;" style="text;html=1;align=center;verticalAlign=middle;resizable=0;points=[];autosize=1;strokeColor=none;fillColor=none;" vertex="1" parent="TPJMeiY1_PRA1f4oK3qn-111">
          <mxGeometry x="5" y="150" width="160" height="45" as="geometry" />
        </mxCell>
        <mxCell id="TPJMeiY1_PRA1f4oK3qn-114" value="IMAGE" style="swimlane;whiteSpace=wrap;html=1;startSize=105;" vertex="1" parent="1">
          <mxGeometry x="1475" y="365" width="200" height="200" as="geometry" />
        </mxCell>
        <mxCell id="TPJMeiY1_PRA1f4oK3qn-115" value="Title" style="text;html=1;align=center;verticalAlign=middle;resizable=0;points=[];autosize=1;strokeColor=none;fillColor=none;" vertex="1" parent="TPJMeiY1_PRA1f4oK3qn-114">
          <mxGeometry y="110" width="45" height="30" as="geometry" />
        </mxCell>
        <mxCell id="TPJMeiY1_PRA1f4oK3qn-116" value="&lt;div&gt;Short Description with link&lt;/div&gt;&lt;div&gt;&lt;br&gt;&lt;/div&gt;" style="text;html=1;align=center;verticalAlign=middle;resizable=0;points=[];autosize=1;strokeColor=none;fillColor=none;" vertex="1" parent="TPJMeiY1_PRA1f4oK3qn-114">
          <mxGeometry x="5" y="150" width="160" height="45" as="geometry" />
        </mxCell>
        <mxCell id="TPJMeiY1_PRA1f4oK3qn-117" value="IMAGE" style="swimlane;whiteSpace=wrap;html=1;startSize=105;" vertex="1" parent="1">
          <mxGeometry x="1730" y="365" width="200" height="200" as="geometry" />
        </mxCell>
        <mxCell id="TPJMeiY1_PRA1f4oK3qn-118" value="Title" style="text;html=1;align=center;verticalAlign=middle;resizable=0;points=[];autosize=1;strokeColor=none;fillColor=none;" vertex="1" parent="TPJMeiY1_PRA1f4oK3qn-117">
          <mxGeometry y="110" width="45" height="30" as="geometry" />
        </mxCell>
        <mxCell id="TPJMeiY1_PRA1f4oK3qn-119" value="&lt;div&gt;Short Description with link&lt;/div&gt;&lt;div&gt;&lt;br&gt;&lt;/div&gt;" style="text;html=1;align=center;verticalAlign=middle;resizable=0;points=[];autosize=1;strokeColor=none;fillColor=none;" vertex="1" parent="TPJMeiY1_PRA1f4oK3qn-117">
          <mxGeometry x="5" y="150" width="160" height="45" as="geometry" />
        </mxCell>
        <mxCell id="TPJMeiY1_PRA1f4oK3qn-120" value="IMAGE" style="swimlane;whiteSpace=wrap;html=1;startSize=105;" vertex="1" parent="1">
          <mxGeometry x="2025" y="365" width="200" height="200" as="geometry" />
        </mxCell>
        <mxCell id="TPJMeiY1_PRA1f4oK3qn-121" value="Title" style="text;html=1;align=center;verticalAlign=middle;resizable=0;points=[];autosize=1;strokeColor=none;fillColor=none;" vertex="1" parent="TPJMeiY1_PRA1f4oK3qn-120">
          <mxGeometry y="110" width="45" height="30" as="geometry" />
        </mxCell>
        <mxCell id="TPJMeiY1_PRA1f4oK3qn-122" value="&lt;div&gt;Short Description with link&lt;/div&gt;&lt;div&gt;&lt;br&gt;&lt;/div&gt;" style="text;html=1;align=center;verticalAlign=middle;resizable=0;points=[];autosize=1;strokeColor=none;fillColor=none;" vertex="1" parent="TPJMeiY1_PRA1f4oK3qn-120">
          <mxGeometry x="5" y="150" width="160" height="45" as="geometry" />
        </mxCell>
        <mxCell id="TPJMeiY1_PRA1f4oK3qn-123" value="" style="rounded=1;whiteSpace=wrap;html=1;fillColor=#fa6800;strokeColor=#C73500;fontColor=#000000;" vertex="1" parent="1">
          <mxGeometry x="1694" y="570" width="60" height="10" as="geometry" />
        </mxCell>
        <mxCell id="TPJMeiY1_PRA1f4oK3qn-124" value="" style="triangle;whiteSpace=wrap;html=1;" vertex="1" parent="1">
          <mxGeometry x="2300" y="440" width="15" height="20" as="geometry" />
        </mxCell>
        <mxCell id="TPJMeiY1_PRA1f4oK3qn-125" value="IMAGE" style="swimlane;whiteSpace=wrap;html=1;startSize=105;" vertex="1" parent="1">
          <mxGeometry x="1225" y="610" width="200" height="200" as="geometry" />
        </mxCell>
        <mxCell id="TPJMeiY1_PRA1f4oK3qn-126" value="Title" style="text;html=1;align=center;verticalAlign=middle;resizable=0;points=[];autosize=1;strokeColor=none;fillColor=none;" vertex="1" parent="TPJMeiY1_PRA1f4oK3qn-125">
          <mxGeometry y="110" width="45" height="30" as="geometry" />
        </mxCell>
        <mxCell id="TPJMeiY1_PRA1f4oK3qn-127" value="&lt;div&gt;Short Description with link&lt;/div&gt;&lt;div&gt;&lt;br&gt;&lt;/div&gt;" style="text;html=1;align=center;verticalAlign=middle;resizable=0;points=[];autosize=1;strokeColor=none;fillColor=none;" vertex="1" parent="TPJMeiY1_PRA1f4oK3qn-125">
          <mxGeometry x="5" y="150" width="160" height="45" as="geometry" />
        </mxCell>
        <mxCell id="TPJMeiY1_PRA1f4oK3qn-128" value="IMAGE" style="swimlane;whiteSpace=wrap;html=1;startSize=105;" vertex="1" parent="1">
          <mxGeometry x="1475" y="610" width="200" height="200" as="geometry" />
        </mxCell>
        <mxCell id="TPJMeiY1_PRA1f4oK3qn-129" value="Title" style="text;html=1;align=center;verticalAlign=middle;resizable=0;points=[];autosize=1;strokeColor=none;fillColor=none;" vertex="1" parent="TPJMeiY1_PRA1f4oK3qn-128">
          <mxGeometry y="110" width="45" height="30" as="geometry" />
        </mxCell>
        <mxCell id="TPJMeiY1_PRA1f4oK3qn-130" value="&lt;div&gt;Short Description with link&lt;/div&gt;&lt;div&gt;&lt;br&gt;&lt;/div&gt;" style="text;html=1;align=center;verticalAlign=middle;resizable=0;points=[];autosize=1;strokeColor=none;fillColor=none;" vertex="1" parent="TPJMeiY1_PRA1f4oK3qn-128">
          <mxGeometry x="5" y="150" width="160" height="45" as="geometry" />
        </mxCell>
        <mxCell id="TPJMeiY1_PRA1f4oK3qn-131" value="IMAGE" style="swimlane;whiteSpace=wrap;html=1;startSize=105;" vertex="1" parent="1">
          <mxGeometry x="1730" y="610" width="200" height="200" as="geometry" />
        </mxCell>
        <mxCell id="TPJMeiY1_PRA1f4oK3qn-132" value="Title" style="text;html=1;align=center;verticalAlign=middle;resizable=0;points=[];autosize=1;strokeColor=none;fillColor=none;" vertex="1" parent="TPJMeiY1_PRA1f4oK3qn-131">
          <mxGeometry y="110" width="45" height="30" as="geometry" />
        </mxCell>
        <mxCell id="TPJMeiY1_PRA1f4oK3qn-133" value="&lt;div&gt;Short Description with link&lt;/div&gt;&lt;div&gt;&lt;br&gt;&lt;/div&gt;" style="text;html=1;align=center;verticalAlign=middle;resizable=0;points=[];autosize=1;strokeColor=none;fillColor=none;" vertex="1" parent="TPJMeiY1_PRA1f4oK3qn-131">
          <mxGeometry x="5" y="150" width="160" height="45" as="geometry" />
        </mxCell>
        <mxCell id="TPJMeiY1_PRA1f4oK3qn-134" value="IMAGE" style="swimlane;whiteSpace=wrap;html=1;startSize=105;" vertex="1" parent="1">
          <mxGeometry x="2025" y="610" width="200" height="200" as="geometry" />
        </mxCell>
        <mxCell id="TPJMeiY1_PRA1f4oK3qn-135" value="Title" style="text;html=1;align=center;verticalAlign=middle;resizable=0;points=[];autosize=1;strokeColor=none;fillColor=none;" vertex="1" parent="TPJMeiY1_PRA1f4oK3qn-134">
          <mxGeometry y="110" width="45" height="30" as="geometry" />
        </mxCell>
        <mxCell id="TPJMeiY1_PRA1f4oK3qn-136" value="&lt;div&gt;Short Description with link&lt;/div&gt;&lt;div&gt;&lt;br&gt;&lt;/div&gt;" style="text;html=1;align=center;verticalAlign=middle;resizable=0;points=[];autosize=1;strokeColor=none;fillColor=none;" vertex="1" parent="TPJMeiY1_PRA1f4oK3qn-134">
          <mxGeometry x="5" y="150" width="160" height="45" as="geometry" />
        </mxCell>
        <mxCell id="TPJMeiY1_PRA1f4oK3qn-137" value="" style="rounded=1;whiteSpace=wrap;html=1;fillColor=#fa6800;strokeColor=#C73500;fontColor=#000000;" vertex="1" parent="1">
          <mxGeometry x="1694" y="815" width="60" height="10" as="geometry" />
        </mxCell>
        <mxCell id="TPJMeiY1_PRA1f4oK3qn-138" value="" style="triangle;whiteSpace=wrap;html=1;" vertex="1" parent="1">
          <mxGeometry x="2300" y="685" width="15" height="20" as="geometry" />
        </mxCell>
        <mxCell id="TPJMeiY1_PRA1f4oK3qn-153" value="Navbar" style="html=1;shadow=0;dashed=0;fillColor=#343A40;strokeColor=none;fontSize=16;fontColor=#ffffff;align=left;spacing=15;" vertex="1" parent="1">
          <mxGeometry y="835" width="1165" height="60" as="geometry" />
        </mxCell>
        <mxCell id="TPJMeiY1_PRA1f4oK3qn-154" value="" style="rounded=1;whiteSpace=wrap;html=1;fillColor=default;opacity=20;shadow=1;" vertex="1" parent="1">
          <mxGeometry x="40" y="925" width="1105" height="720" as="geometry" />
        </mxCell>
        <mxCell id="TPJMeiY1_PRA1f4oK3qn-155" value="" style="rounded=1;whiteSpace=wrap;html=1;" vertex="1" parent="1">
          <mxGeometry x="107.5" y="990" width="440" height="550" as="geometry" />
        </mxCell>
        <mxCell id="TPJMeiY1_PRA1f4oK3qn-156" value="" style="endArrow=none;html=1;rounded=0;" edge="1" parent="1">
          <mxGeometry width="50" height="50" relative="1" as="geometry">
            <mxPoint x="107.5" y="1070" as="sourcePoint" />
            <mxPoint x="555" y="1070" as="targetPoint" />
          </mxGeometry>
        </mxCell>
        <mxCell id="TPJMeiY1_PRA1f4oK3qn-157" value="Title" style="text;html=1;strokeColor=none;fillColor=none;align=center;verticalAlign=middle;whiteSpace=wrap;rounded=0;" vertex="1" parent="1">
          <mxGeometry x="280" y="1020" width="60" height="30" as="geometry" />
        </mxCell>
        <mxCell id="TPJMeiY1_PRA1f4oK3qn-158" value="IMAGE" style="text;html=1;strokeColor=none;fillColor=none;align=center;verticalAlign=middle;whiteSpace=wrap;rounded=0;" vertex="1" parent="1">
          <mxGeometry x="290" y="1250" width="60" height="30" as="geometry" />
        </mxCell>
        <mxCell id="TPJMeiY1_PRA1f4oK3qn-160" value="BODY" style="text;html=1;strokeColor=none;fillColor=none;align=center;verticalAlign=middle;whiteSpace=wrap;rounded=0;" vertex="1" parent="1">
          <mxGeometry x="585" y="1040" width="475" height="450" as="geometry" />
        </mxCell>
        <mxCell id="TPJMeiY1_PRA1f4oK3qn-161" value="DATE" style="rounded=1;whiteSpace=wrap;html=1;" vertex="1" parent="1">
          <mxGeometry x="845" y="1495" width="110" height="20" as="geometry" />
        </mxCell>
        <mxCell id="TPJMeiY1_PRA1f4oK3qn-162" value="CATEGORY" style="rounded=1;whiteSpace=wrap;html=1;" vertex="1" parent="1">
          <mxGeometry x="715" y="1495" width="110" height="20" as="geometry" />
        </mxCell>
        <mxCell id="TPJMeiY1_PRA1f4oK3qn-164" value="&lt;div&gt;Effetto di apertura con container a sinistra che esce da quello&lt;/div&gt;&lt;div&gt;di destra. magari centrati?&lt;br&gt;&lt;/div&gt;" style="text;html=1;strokeColor=none;fillColor=none;align=center;verticalAlign=middle;whiteSpace=wrap;rounded=0;" vertex="1" parent="1">
          <mxGeometry x="330" y="1575" width="445" height="60" as="geometry" />
        </mxCell>
        <mxCell id="TPJMeiY1_PRA1f4oK3qn-165" value="Background reattivo oppure GIF" style="text;html=1;strokeColor=none;fillColor=none;align=center;verticalAlign=middle;whiteSpace=wrap;rounded=0;" vertex="1" parent="1">
          <mxGeometry x="465" y="220" width="215" height="85" as="geometry" />
        </mxCell>
      </root>
    </mxGraphModel>
  </diagram>
</mxfile>
